<svg xmlns="http://www.w3.org/2000/svg" viewBox="0 0 117.94 117.94"><defs><style>.cls-1{fill:#fff;}.cls-2{fill:#1dd83b;}.cls-3{fill:none;stroke:#1dd83b;stroke-linecap:round;stroke-linejoin:round;stroke-width:5px;}</style></defs><title>Asset 4</title><g id="Layer_2" data-name="Layer 2"><g id="Layer_1-2" data-name="Layer 1"><path class="cls-1" d="M59,115.44A56.47,56.47,0,1,1,115.44,59,56.53,56.53,0,0,1,59,115.44Z"/><path class="cls-2" d="M59,5A54,54,0,1,1,5,59,54,54,0,0,1,59,5m0-5a59,59,0,1,0,59,59A59,59,0,0,0,59,0Z"/><line class="cls-3" x1="58.59" y1="31.33" x2="58.59" y2="63.52"/><polyline class="cls-3" points="42.65 58.31 58.74 74.4 74.84 58.31"/><polyline class="cls-3" points="77.75 47.42 91.85 47.42 91.85 84.83 58.74 84.83 58.43 84.83 25.32 84.83 25.32 47.42 39.43 47.42"/></g></g></svg>