<svg xmlns="http://www.w3.org/2000/svg" viewBox="0 0 73.97 63.02"><defs><style>.cls-1{fill:none;stroke:#fff;stroke-miterlimit:10;stroke-width:3px;}</style></defs><title>Asset 8</title><g id="Layer_2" data-name="Layer 2"><g id="Layer_1-2" data-name="Layer 1"><path class="cls-1" d="M67,15.7a50.58,50.58,0,0,0-1.23-9.79,18.65,18.65,0,0,0-1-3.25,1.81,1.81,0,0,0-2-1.13,14,14,0,0,0-1.47.37A62,62,0,0,0,47.66,8.52,3.7,3.7,0,0,1,45.55,9c-1.67-.12-3.31-.54-5-.62A55.89,55.89,0,0,0,28.25,9a2.72,2.72,0,0,1-1.79-.3,52.51,52.51,0,0,0-15-7.08c-.82-.22-1.67-.1-1.88.22a2.43,2.43,0,0,0-.3.63A55.85,55.85,0,0,0,7.61,8.74,32.94,32.94,0,0,0,7,16.42,4.79,4.79,0,0,1,5.82,20.1,20.77,20.77,0,0,0,1.51,32.88,36.6,36.6,0,0,0,3.2,44.72,21.91,21.91,0,0,0,14.2,58a33,33,0,0,0,14.44,3.47c4.53.16,9.06,0,13.6,0a42,42,0,0,0,13.37-1.8,22.89,22.89,0,0,0,11-7.3c4.22-5.19,5.53-11.31,5.8-17.79a21.26,21.26,0,0,0-3.7-13.67A7.93,7.93,0,0,1,67,15.7Zm-8.75,38a15.49,15.49,0,0,1-6.77,3.07,52.45,52.45,0,0,1-14.55,1.21,52.23,52.23,0,0,1-14.31-1.2c-3.47-.82-6.63-2.19-8.84-5.16-3.51-4.74-4.41-13.75,1.39-18.67a8.54,8.54,0,0,1,5.08-2.17c2.15-.14,4.3-.41,6.45-.38,5.42.06,10.85.33,16.27.37,2.48,0,5-.56,7.43-.41A19.47,19.47,0,0,1,57,31.76c3.38,1.5,5.2,4.54,5.75,8.1C63.55,45.15,62.47,50,58.21,53.66Z"/><ellipse class="cls-1" cx="49.37" cy="43.34" rx="5.17" ry="6.91"/><ellipse class="cls-1" cx="24.7" cy="43.34" rx="5.17" ry="6.91"/></g></g></svg>