<svg xmlns="http://www.w3.org/2000/svg" viewBox="0 0 117.94 117.94"><defs><style>.cls-1,.cls-2{fill:none;stroke-miterlimit:10;}.cls-1{stroke:#070707;}.cls-2{stroke:#000;}</style></defs><title>Asset 2</title><g id="Layer_2" data-name="Layer 2"><g id="Layer_1-2" data-name="Layer 1"><path d="M59,5A54,54,0,1,1,5,59,54,54,0,0,1,59,5m0-5a59,59,0,1,0,59,59A59,59,0,0,0,59,0Z"/><path class="cls-1" d="M88.57,45.1a50.58,50.58,0,0,0-1.23-9.79,18.65,18.65,0,0,0-1-3.25,1.81,1.81,0,0,0-2-1.13,14,14,0,0,0-1.47.37,62,62,0,0,0-13.59,6.61,3.7,3.7,0,0,1-2.11.44c-1.67-.12-3.31-.54-5-.62a55.89,55.89,0,0,0-12.32.64,2.72,2.72,0,0,1-1.79-.3A52.51,52.51,0,0,0,33,31c-.82-.22-1.67-.1-1.88.22a2.43,2.43,0,0,0-.3.63,55.85,55.85,0,0,0-1.64,6.27,32.94,32.94,0,0,0-.61,7.68,4.79,4.79,0,0,1-1.19,3.69,20.77,20.77,0,0,0-4.31,12.78,36.6,36.6,0,0,0,1.7,11.84,21.91,21.91,0,0,0,11,13.25,33,33,0,0,0,14.44,3.47c4.53.16,9.06,0,13.6,0a42,42,0,0,0,13.37-1.8,22.89,22.89,0,0,0,11-7.3c4.22-5.19,5.53-11.31,5.8-17.79a21.26,21.26,0,0,0-3.7-13.67A7.93,7.93,0,0,1,88.57,45.1Zm-8.75,38A15.49,15.49,0,0,1,73,86.12,52.45,52.45,0,0,1,58.5,87.33a52.23,52.23,0,0,1-14.31-1.2c-3.47-.82-6.63-2.19-8.84-5.16-3.51-4.74-4.41-13.75,1.39-18.67a8.54,8.54,0,0,1,5.08-2.17c2.15-.14,4.3-.41,6.45-.38,5.42.06,10.85.33,16.27.37,2.48,0,5-.56,7.43-.41a19.47,19.47,0,0,1,6.61,1.45c3.38,1.5,5.2,4.54,5.75,8.1C85.16,74.54,84.08,79.36,79.82,83.05Z"/><ellipse class="cls-2" cx="70.98" cy="72.73" rx="5.17" ry="6.91"/><ellipse class="cls-2" cx="46.31" cy="72.73" rx="5.17" ry="6.91"/></g></g></svg>