<svg xmlns="http://www.w3.org/2000/svg" viewBox="0 0 117.94 117.94"><defs><style>.cls-1{fill:#007ebb;}.cls-2{fill:none;stroke:#007ebb;stroke-miterlimit:10;}</style></defs><title>Asset 1</title><g id="Layer_2" data-name="Layer 2"><g id="Layer_1-2" data-name="Layer 1"><path class="cls-1" d="M59,5A54,54,0,1,1,5,59,54,54,0,0,1,59,5m0-5a59,59,0,1,0,59,59A59,59,0,0,0,59,0Z"/><g id="LinkedIn"><rect class="cls-2" x="26.71" y="44.14" width="13.29" height="42.12"/><path class="cls-2" d="M33,38.88h-.1c-4.81,0-7.93-3.22-7.93-7.3s3.21-7.31,8.12-7.31,7.92,3.14,8,7.3S38,38.88,33,38.88Z"/><path class="cls-2" d="M93.19,86.26H78.11V64.47c0-5.7-2.36-9.6-7.54-9.6A7.61,7.61,0,0,0,63.37,60,9.6,9.6,0,0,0,63,63.47V86.26H48.12s.19-38.61,0-42.12H63v6.61c.88-2.89,5.65-7,13.27-7,9.45,0,16.87,6.06,16.87,19.1V86.26Z"/></g></g></g></svg>