<svg xmlns="http://www.w3.org/2000/svg" viewBox="0 0 70.2 64"><defs><style>.cls-1,.cls-2{fill:none;stroke:#fff;stroke-linecap:round;stroke-width:2px;}.cls-1{stroke-miterlimit:10;}.cls-2{stroke-linejoin:round;}</style></defs><title>Asset 7</title><g id="Layer_2" data-name="Layer 2"><g id="Layer_1-2" data-name="Layer 1"><g id="LinkedIn"><rect class="cls-1" x="2.72" y="20.88" width="13.29" height="42.12"/><path class="cls-1" d="M9,15.61h-.1C4.12,15.61,1,12.39,1,8.31S4.21,1,9.12,1s7.92,3.14,8,7.3S14,15.61,9,15.61Z"/><path class="cls-2" d="M69.2,63H54.13V41.2c0-5.7-2.36-9.6-7.54-9.6a7.61,7.61,0,0,0-7.2,5.16,9.6,9.6,0,0,0-.33,3.44V63H24.13s.19-38.61,0-42.12H39.06l0,5.12c2-4,5.62-5.52,13.23-5.52,9.45,0,16.87,6.06,16.87,19.1V63Z"/></g></g></g></svg>