<svg xmlns="http://www.w3.org/2000/svg" viewBox="0 0 1228 420"><defs><style>.cls-1{stroke:#bfbfbf;}.cls-1,.cls-10,.cls-11,.cls-2,.cls-3,.cls-4,.cls-5,.cls-6,.cls-7,.cls-8,.cls-9{stroke-linejoin:round;}.cls-1,.cls-10,.cls-4,.cls-7{stroke-width:2px;}.cls-10,.cls-11,.cls-2,.cls-3,.cls-4,.cls-5,.cls-6,.cls-7,.cls-8,.cls-9{fill:none;}.cls-2{stroke:#f4cdcb;}.cls-11,.cls-2,.cls-3,.cls-5,.cls-6,.cls-8,.cls-9{stroke-width:3px;}.cls-3,.cls-4{stroke:#f3a096;}.cls-5{stroke:#abc4af;}.cls-6,.cls-7{stroke:#a7cbaf;}.cls-8{stroke:#96a2bc;}.cls-10,.cls-9{stroke:#7d8ebe;}.cls-11{stroke:#c1aaaa;}</style></defs><title>Asset 9</title><g id="Layer_2" data-name="Layer 2"><g id="timeline"><line class="cls-1" y1="208.5" x2="62" y2="208.5"/><line class="cls-2" x1="62.5" y1="209.5" x2="62.5" y2="241.5"/><circle class="cls-2" cx="62.5" cy="251" r="10"/><line class="cls-1" x1="62" y1="208.5" x2="170" y2="208.5"/><line class="cls-2" x1="170.5" y1="208" x2="170.5" y2="176"/><circle class="cls-2" cx="170.5" cy="166.5" r="10"/><line class="cls-1" x1="170" y1="208.5" x2="263" y2="208.5"/><circle class="cls-3" cx="293" cy="209.5" r="29"/><circle class="cls-4" cx="293" cy="209.5" r="14"/><line class="cls-4" x1="293" y1="239.5" x2="293" y2="400.5"/><circle class="cls-3" cx="293" cy="409.5" r="9"/><line class="cls-1" x1="322" y1="208.5" x2="407" y2="208.5"/><line class="cls-5" x1="407.5" y1="241" x2="407.5" y2="209"/><circle class="cls-5" cx="407.5" cy="250.5" r="10"/><line class="cls-1" x1="407" y1="208.5" x2="516" y2="208.5"/><line class="cls-5" x1="515.5" y1="175.5" x2="515.5" y2="207.5"/><circle class="cls-5" cx="515.5" cy="166" r="10"/><line class="cls-1" x1="515.5" y1="208.5" x2="585" y2="208.5"/><circle class="cls-6" cx="614" cy="209.5" r="29"/><circle class="cls-7" cx="614" cy="209.5" r="14"/><line class="cls-7" x1="614" y1="180.5" x2="614" y2="19.5"/><circle class="cls-6" cx="614" cy="10.5" r="9"/><line class="cls-1" x1="643" y1="208.5" x2="735.5" y2="208.5"/><line class="cls-8" x1="735.5" y1="240.5" x2="735.5" y2="208.5"/><circle class="cls-8" cx="735.5" cy="250" r="10"/><line class="cls-1" x1="735" y1="208.5" x2="843" y2="208.5"/><line class="cls-8" x1="843.5" y1="208" x2="843.5" y2="176"/><circle class="cls-8" cx="843.5" cy="166.5" r="10"/><line class="cls-1" x1="843" y1="208.5" x2="906" y2="208.5"/><circle class="cls-9" cx="935" cy="209.5" r="29"/><circle class="cls-10" cx="935" cy="209.5" r="14"/><line class="cls-10" x1="935" y1="239.5" x2="935" y2="400.5"/><circle class="cls-9" cx="935" cy="409.5" r="9"/><line class="cls-1" x1="964" y1="208.5" x2="1037" y2="208.5"/><line class="cls-11" x1="1036.5" y1="241" x2="1036.5" y2="209"/><circle class="cls-11" cx="1036.5" cy="250.5" r="10"/><line class="cls-1" x1="1037" y1="208.5" x2="1145" y2="208.5"/><line class="cls-11" x1="1144.5" y1="175.5" x2="1144.5" y2="207.5"/><circle class="cls-11" cx="1144.5" cy="166" r="10"/><line class="cls-1" x1="1144.5" y1="208.5" x2="1228" y2="208.5"/><path class="cls-8" d="M735.5,215.5"/></g></g></svg>