<svg xmlns="http://www.w3.org/2000/svg" viewBox="0 0 767.19 126.21"><defs><style>.cls-1{fill:none;stroke:#515151;stroke-linecap:square;stroke-linejoin:bevel;stroke-width:2px;}</style></defs><title>Asset 9</title><g id="Layer_2" data-name="Layer 2"><g id="Layer_2-2" data-name="Layer 2"><polyline class="cls-1" points="1.19 1.7 28.19 123.7 63.94 1.7 97.19 125.2 126.69 1.2"/><polyline class="cls-1" points="222.69 5.7 159.19 5.7 159.19 122.2 225.36 122.2"/><line class="cls-1" x1="159.19" y1="59.2" x2="214.69" y2="59.2"/><polyline class="cls-1" points="257.69 1.7 257.69 122.2 319.03 122.2"/><path class="cls-1" d="M415.27,106.67c-8.77,9.94-20.59,16-33.58,16-27.06,0-49-26.42-49-59s21.94-59,49-59c11.45,0,22,4.73,30.34,12.66"/><ellipse class="cls-1" cx="482.69" cy="64.7" rx="46" ry="60"/><polyline class="cls-1" points="567.03 125.2 567.19 2.2 611.19 108.2 653.69 1.7 653.69 125.2"/><polyline class="cls-1" points="764.76 5.7 701.19 5.7 701.19 122.2 766.19 122.2"/><line class="cls-1" x1="701.19" y1="59.2" x2="755.59" y2="59.2"/></g></g></svg>